<svg width="16" height="16" viewBox="0 0 16 16" fill="none" xmlns="http://www.w3.org/2000/svg">
<path fill-rule="evenodd" clip-rule="evenodd" d="M6.3485 5.95573C6.28115 6.11705 6.12928 6.2272 5.95502 6.24111L2.78884 6.49396C2.37456 6.52704 2.20693 7.04437 2.52308 7.31414L4.93269 9.37023C5.06617 9.48413 5.12448 9.66327 5.08362 9.83391L4.34697 12.9101C4.25035 13.3136 4.68892 13.6331 5.04337 13.4174L7.75764 11.766C7.90665 11.6753 8.09377 11.6753 8.24277 11.766L10.957 13.4174C11.3115 13.6331 11.75 13.3136 11.6534 12.9101L10.9168 9.83391C10.8759 9.66326 10.9342 9.48413 11.0677 9.37023L13.4773 7.31414C13.7934 7.04437 13.6258 6.52704 13.2115 6.49396L10.0454 6.24111C9.87113 6.2272 9.71927 6.11705 9.65191 5.95573L8.43084 3.03132C8.27114 2.64884 7.72927 2.64884 7.56957 3.03132L6.3485 5.95573ZM10.6786 4.9541L9.66123 2.51758C9.04524 1.04231 6.95517 1.04232 6.33919 2.51758L5.32184 4.9541L2.6827 5.16486C1.08475 5.29247 0.43818 7.28789 1.65761 8.32841L3.66328 10.0398L3.0503 12.5996C2.6776 14.1559 4.36922 15.3883 5.73641 14.5565L8.00021 13.1792L10.264 14.5565C11.6312 15.3883 13.3228 14.1559 12.9501 12.5996L12.3371 10.0398L14.3428 8.32841C15.5622 7.28788 14.9156 5.29247 13.3177 5.16486L10.6786 4.9541Z" fill="#777E90"/>
</svg>
