<svg width="16" height="16" viewBox="0 0 16 16" fill="none" xmlns="http://www.w3.org/2000/svg">
<path fill-rule="evenodd" clip-rule="evenodd" d="M8.00065 13.3333C10.9462 13.3333 13.334 10.9454 13.334 7.99992C13.334 5.0544 10.9462 2.66658 8.00065 2.66658C5.05513 2.66658 2.66731 5.0544 2.66731 7.99992C2.66731 10.9454 5.05513 13.3333 8.00065 13.3333ZM8.00065 14.6666C11.6826 14.6666 14.6673 11.6819 14.6673 7.99992C14.6673 4.31802 11.6826 1.33325 8.00065 1.33325C4.31875 1.33325 1.33398 4.31802 1.33398 7.99992C1.33398 11.6819 4.31875 14.6666 8.00065 14.6666Z" fill="#777E90"/>
<path fill-rule="evenodd" clip-rule="evenodd" d="M8.00065 4C8.36884 4 8.66731 4.29848 8.66731 4.66667V7.72386L10.1387 9.19526C10.3991 9.45561 10.3991 9.87772 10.1387 10.1381C9.87837 10.3984 9.45626 10.3984 9.19591 10.1381L7.52925 8.4714C7.40422 8.34638 7.33398 8.17681 7.33398 8V4.66667C7.33398 4.29848 7.63246 4 8.00065 4Z" fill="#777E90"/>
</svg>
