<svg width="16" height="16" viewBox="0 0 16 16" fill="none" xmlns="http://www.w3.org/2000/svg">
<path fill-rule="evenodd" clip-rule="evenodd" d="M8.00065 13.3333C10.9462 13.3333 13.334 10.9454 13.334 7.99992C13.334 5.0544 10.9462 2.66658 8.00065 2.66658C5.05513 2.66658 2.66731 5.0544 2.66731 7.99992C2.66731 10.9454 5.05513 13.3333 8.00065 13.3333ZM8.00065 14.6666C11.6826 14.6666 14.6673 11.6819 14.6673 7.99992C14.6673 4.31802 11.6826 1.33325 8.00065 1.33325C4.31875 1.33325 1.33398 4.31802 1.33398 7.99992C1.33398 11.6819 4.31875 14.6666 8.00065 14.6666Z" fill="#777E90"/>
<path d="M7.33399 4.66667C7.33399 4.29848 7.63247 4 8.00066 4C8.36885 4 8.66732 4.29848 8.66732 4.66667C9.77189 4.66667 10.6673 5.5621 10.6673 6.66667C10.6673 7.03486 10.3688 7.33333 10.0007 7.33333C9.63247 7.33333 9.33399 7.03486 9.33399 6.66667C9.33399 6.29848 9.03551 6 8.66732 6H7.16293C6.88922 6 6.66732 6.22189 6.66732 6.49561C6.66732 6.70894 6.80383 6.89833 7.00621 6.96579L9.41674 7.7693C10.1636 8.01825 10.6673 8.71716 10.6673 9.50439C10.6673 10.5145 9.84848 11.3333 8.83838 11.3333H8.66732C8.66732 11.7015 8.36885 12 8.00066 12C7.63247 12 7.33399 11.7015 7.33399 11.3333C6.22941 11.3333 5.33398 10.4379 5.33398 9.33333C5.33398 8.96514 5.63246 8.66667 6.00065 8.66667C6.36885 8.66667 6.66732 8.96514 6.66732 9.33333C6.66732 9.70152 6.9658 10 7.33399 10H8.83838C9.1121 10 9.33399 9.77811 9.33399 9.50439C9.33399 9.29106 9.19748 9.10167 8.99511 9.03421L6.58457 8.2307C5.83773 7.98176 5.33398 7.28284 5.33398 6.49561C5.33398 5.48551 6.15283 4.66667 7.16293 4.66667H7.33399Z" fill="#777E90"/>
</svg>
