<svg width="6" height="10" viewBox="0 0 6 10" fill="none" xmlns="http://www.w3.org/2000/svg">
<g clip-path="url(#clip0_0_3454)">
<path fill-rule="evenodd" clip-rule="evenodd" d="M0.195262 3.80441C0.455612 4.06476 0.877722 4.06476 1.13807 3.80441L3 1.94249L4.86193 3.80441C5.12228 4.06476 5.54439 4.06476 5.80474 3.80441C6.06509 3.54407 6.06509 3.12196 5.80474 2.86161L3.4714 0.52827C3.21106 0.26792 2.78895 0.26792 2.5286 0.52827L0.195262 2.86161C-0.0650872 3.12196 -0.0650872 3.54407 0.195262 3.80441Z" fill="#777E90"/>
<path fill-rule="evenodd" clip-rule="evenodd" d="M0.195262 6.19595C0.455612 5.9356 0.877722 5.9356 1.13807 6.19595L3 8.05788L4.86193 6.19595C5.12228 5.9356 5.54439 5.9356 5.80474 6.19595C6.06509 6.45629 6.06509 6.87841 5.80474 7.13876L3.4714 9.4721C3.21106 9.73245 2.78895 9.73245 2.5286 9.4721L0.195262 7.13876C-0.0650872 6.87841 -0.0650872 6.45629 0.195262 6.19595Z" fill="#777E90"/>
</g>
<defs>
<clipPath id="clip0_0_3454">
<rect width="6.00065" height="9.33366" fill="white" transform="translate(0 0.333374)"/>
</clipPath>
</defs>
</svg>
