<svg width="151" height="32" viewBox="0 0 151 32" fill="none" xmlns="http://www.w3.org/2000/svg">
<path fill-rule="evenodd" clip-rule="evenodd" d="M13.2971 0.687536C14.9824 -0.229179 17.0176 -0.229179 18.7028 0.687536L28.4731 6.00205C30.2935 6.99225 31.4267 8.89866 31.4267 10.971V21.029C31.4267 23.1013 30.2935 25.0077 28.4731 25.998L18.7028 31.3125C17.0176 32.2292 14.9824 32.2292 13.2971 31.3125L3.52686 25.998C1.70645 25.0077 0.573242 23.1013 0.573242 21.029L0.573242 10.971C0.573242 8.89866 1.70644 6.99225 3.52686 6.00205L13.2971 0.687536Z" fill="#3772FF"/>
<g filter="url(#filter0_d)">
<path fill-rule="evenodd" clip-rule="evenodd" d="M18.8612 21.6668C22.5431 21.6668 25.5279 18.6821 25.5279 15.0002C25.5279 11.3183 22.5431 8.3335 18.8612 8.3335C16.0446 8.3335 13.636 10.0801 12.6594 12.5494C12.1871 12.3891 11.6809 12.3022 11.1544 12.3022C8.56848 12.3022 6.47217 14.3986 6.47217 16.9845C6.47217 19.5704 8.56848 21.6667 11.1544 21.6667H11.1547L11.1544 21.6669H17.9896C18.0908 21.6669 18.1911 21.6587 18.2897 21.6427C18.478 21.6587 18.6687 21.6668 18.8612 21.6668ZM14.63 20.1523C14.6248 20.148 14.6195 20.1437 14.6143 20.1393C14.6041 20.1504 14.5939 20.1615 14.5837 20.1725L14.63 20.1523Z" fill="url(#paint0_linear)"/>
</g>
<path d="M18.4638 1.12676L18.7028 0.687536L18.4638 1.12676L28.2341 6.44127C29.8936 7.34395 30.9267 9.08184 30.9267 10.971V21.029C30.9267 22.9181 29.8936 24.656 28.2341 25.5588L18.4638 30.8732L18.7028 31.3125L18.4638 30.8733C16.9276 31.7089 15.0724 31.7089 13.5361 30.8732L3.7658 25.5588C2.10628 24.656 1.07324 22.9181 1.07324 21.029V10.971C1.07324 9.08184 2.10628 7.34395 3.76578 6.44127L13.5361 1.12676C15.0724 0.291077 16.9276 0.291084 18.4638 1.12676Z" stroke="url(#paint1_linear)"/>
<path d="M45.016 21.336H50.536V24H41.656V7.248H45.016V21.336ZM58.0956 24.216C56.8156 24.216 55.6636 23.936 54.6396 23.376C53.6156 22.8 52.8076 21.992 52.2156 20.952C51.6396 19.912 51.3516 18.712 51.3516 17.352C51.3516 15.992 51.6476 14.792 52.2396 13.752C52.8476 12.712 53.6716 11.912 54.7116 11.352C55.7516 10.776 56.9116 10.488 58.1916 10.488C59.4716 10.488 60.6316 10.776 61.6716 11.352C62.7116 11.912 63.5276 12.712 64.1196 13.752C64.7276 14.792 65.0316 15.992 65.0316 17.352C65.0316 18.712 64.7196 19.912 64.0956 20.952C63.4876 21.992 62.6556 22.8 61.5996 23.376C60.5596 23.936 59.3916 24.216 58.0956 24.216ZM58.0956 21.288C58.7036 21.288 59.2716 21.144 59.7996 20.856C60.3436 20.552 60.7756 20.104 61.0956 19.512C61.4156 18.92 61.5756 18.2 61.5756 17.352C61.5756 16.088 61.2396 15.12 60.5676 14.448C59.9116 13.76 59.1036 13.416 58.1436 13.416C57.1836 13.416 56.3756 13.76 55.7196 14.448C55.0796 15.12 54.7596 16.088 54.7596 17.352C54.7596 18.616 55.0716 19.592 55.6956 20.28C56.3356 20.952 57.1356 21.288 58.0956 21.288ZM72.2243 10.488C73.2163 10.488 74.0883 10.688 74.8403 11.088C75.5923 11.472 76.1843 11.976 76.6163 12.6V10.704H80.0003V24.096C80.0003 25.328 79.7523 26.424 79.2563 27.384C78.7603 28.36 78.0163 29.128 77.0243 29.688C76.0323 30.264 74.8323 30.552 73.4243 30.552C71.5363 30.552 69.9843 30.112 68.7683 29.232C67.5683 28.352 66.8883 27.152 66.7283 25.632H70.0643C70.2403 26.24 70.6163 26.72 71.1923 27.072C71.7843 27.44 72.4963 27.624 73.3283 27.624C74.3043 27.624 75.0963 27.328 75.7043 26.736C76.3123 26.16 76.6163 25.28 76.6163 24.096V22.032C76.1843 22.656 75.5843 23.176 74.8163 23.592C74.0643 24.008 73.2003 24.216 72.2243 24.216C71.1043 24.216 70.0803 23.928 69.1523 23.352C68.2243 22.776 67.4883 21.968 66.9443 20.928C66.4163 19.872 66.1523 18.664 66.1523 17.304C66.1523 15.96 66.4163 14.768 66.9443 13.728C67.4883 12.688 68.2163 11.888 69.1283 11.328C70.0563 10.768 71.0883 10.488 72.2243 10.488ZM76.6163 17.352C76.6163 16.536 76.4563 15.84 76.1363 15.264C75.8163 14.672 75.3843 14.224 74.8403 13.92C74.2963 13.6 73.7123 13.44 73.0883 13.44C72.4643 13.44 71.8883 13.592 71.3603 13.896C70.8323 14.2 70.4003 14.648 70.0643 15.24C69.7443 15.816 69.5843 16.504 69.5843 17.304C69.5843 18.104 69.7443 18.808 70.0643 19.416C70.4003 20.008 70.8323 20.464 71.3603 20.784C71.9043 21.104 72.4803 21.264 73.0883 21.264C73.7123 21.264 74.2963 21.112 74.8403 20.808C75.3843 20.488 75.8163 20.04 76.1363 19.464C76.4563 18.872 76.6163 18.168 76.6163 17.352ZM88.7059 24.216C87.4259 24.216 86.2739 23.936 85.2499 23.376C84.2259 22.8 83.4179 21.992 82.8259 20.952C82.2499 19.912 81.9619 18.712 81.9619 17.352C81.9619 15.992 82.2579 14.792 82.8499 13.752C83.4579 12.712 84.2819 11.912 85.3219 11.352C86.3619 10.776 87.5219 10.488 88.8019 10.488C90.0819 10.488 91.2419 10.776 92.2819 11.352C93.3219 11.912 94.1379 12.712 94.7299 13.752C95.3379 14.792 95.6419 15.992 95.6419 17.352C95.6419 18.712 95.3299 19.912 94.7059 20.952C94.0979 21.992 93.2659 22.8 92.2099 23.376C91.1699 23.936 90.0019 24.216 88.7059 24.216ZM88.7059 21.288C89.3139 21.288 89.8819 21.144 90.4099 20.856C90.9539 20.552 91.3859 20.104 91.7059 19.512C92.0259 18.92 92.1859 18.2 92.1859 17.352C92.1859 16.088 91.8499 15.12 91.1779 14.448C90.5219 13.76 89.7139 13.416 88.7539 13.416C87.7939 13.416 86.9859 13.76 86.3299 14.448C85.6899 15.12 85.3699 16.088 85.3699 17.352C85.3699 18.616 85.6819 19.592 86.3059 20.28C86.9459 20.952 87.7459 21.288 88.7059 21.288ZM111.523 7.248V24H108.163V16.872H100.987V24H97.6266V7.248H100.987V14.136H108.163V7.248H111.523ZM126.71 17.064C126.71 17.544 126.678 17.976 126.614 18.36H116.894C116.974 19.32 117.31 20.072 117.902 20.616C118.494 21.16 119.222 21.432 120.086 21.432C121.334 21.432 122.222 20.896 122.75 19.824H126.374C125.99 21.104 125.254 22.16 124.166 22.992C123.078 23.808 121.742 24.216 120.158 24.216C118.878 24.216 117.726 23.936 116.702 23.376C115.694 22.8 114.902 21.992 114.326 20.952C113.766 19.912 113.486 18.712 113.486 17.352C113.486 15.976 113.766 14.768 114.326 13.728C114.886 12.688 115.67 11.888 116.678 11.328C117.686 10.768 118.846 10.488 120.158 10.488C121.422 10.488 122.55 10.76 123.542 11.304C124.55 11.848 125.326 12.624 125.87 13.632C126.43 14.624 126.71 15.768 126.71 17.064ZM123.23 16.104C123.214 15.24 122.902 14.552 122.294 14.04C121.686 13.512 120.942 13.248 120.062 13.248C119.23 13.248 118.526 13.504 117.95 14.016C117.39 14.512 117.046 15.208 116.918 16.104H123.23ZM132.042 12.768C132.474 12.064 133.034 11.512 133.722 11.112C134.426 10.712 135.226 10.512 136.122 10.512V14.04H135.234C134.178 14.04 133.378 14.288 132.834 14.784C132.306 15.28 132.042 16.144 132.042 17.376V24H128.682V10.704H132.042V12.768ZM150.265 17.064C150.265 17.544 150.233 17.976 150.169 18.36H140.449C140.529 19.32 140.865 20.072 141.457 20.616C142.049 21.16 142.777 21.432 143.641 21.432C144.889 21.432 145.777 20.896 146.305 19.824H149.929C149.545 21.104 148.809 22.16 147.721 22.992C146.633 23.808 145.297 24.216 143.713 24.216C142.433 24.216 141.281 23.936 140.257 23.376C139.249 22.8 138.457 21.992 137.881 20.952C137.321 19.912 137.041 18.712 137.041 17.352C137.041 15.976 137.321 14.768 137.881 13.728C138.441 12.688 139.225 11.888 140.233 11.328C141.241 10.768 142.401 10.488 143.713 10.488C144.977 10.488 146.105 10.76 147.097 11.304C148.105 11.848 148.881 12.624 149.425 13.632C149.985 14.624 150.265 15.768 150.265 17.064ZM146.785 16.104C146.769 15.24 146.457 14.552 145.849 14.04C145.241 13.512 144.497 13.248 143.617 13.248C142.785 13.248 142.081 13.504 141.505 14.016C140.945 14.512 140.601 15.208 140.473 16.104H146.785Z" fill="#23262F"/>
<defs>
<filter id="filter0_d" x="2.47217" y="6.3335" width="27.0557" height="21.3335" filterUnits="userSpaceOnUse" color-interpolation-filters="sRGB">
<feFlood flood-opacity="0" result="BackgroundImageFix"/>
<feColorMatrix in="SourceAlpha" type="matrix" values="0 0 0 0 0 0 0 0 0 0 0 0 0 0 0 0 0 0 127 0" result="hardAlpha"/>
<feOffset dy="2"/>
<feGaussianBlur stdDeviation="2"/>
<feColorMatrix type="matrix" values="0 0 0 0 0 0 0 0 0 0 0 0 0 0 0 0 0 0 0.15 0"/>
<feBlend mode="normal" in2="BackgroundImageFix" result="effect1_dropShadow"/>
<feBlend mode="normal" in="SourceGraphic" in2="effect1_dropShadow" result="shape"/>
</filter>
<linearGradient id="paint0_linear" x1="12.7253" y1="6.30431" x2="8.40707" y2="20.0246" gradientUnits="userSpaceOnUse">
<stop stop-color="white"/>
<stop offset="1" stop-color="#FCFCFD" stop-opacity="0.75"/>
</linearGradient>
<linearGradient id="paint1_linear" x1="0.573242" y1="0" x2="0.573242" y2="32" gradientUnits="userSpaceOnUse">
<stop stop-color="#7EA4FF" stop-opacity="0.27"/>
<stop offset="1" stop-color="#1448C4" stop-opacity="0.42"/>
</linearGradient>
</defs>
</svg>
