<svg xmlns="http://www.w3.org/2000/svg" xmlns:xlink="http://www.w3.org/1999/xlink" viewBox="0 0 32 32" fill="#8D8282">
  <path d="M9.5 5C5.363281 5 2 8.402344 2 12.5C2 13.929688 2.648438 15.167969 3.25 16.0625C3.851563 16.957031 4.46875 17.53125 4.46875 17.53125L15.28125 28.375L16 29.09375L16.71875 28.375L27.53125 17.53125C27.53125 17.53125 30 15.355469 30 12.5C30 8.402344 26.636719 5 22.5 5C19.066406 5 16.855469 7.066406 16 7.9375C15.144531 7.066406 12.933594 5 9.5 5 Z M 9.5 7C12.488281 7 15.25 9.90625 15.25 9.90625L16 10.75L16.75 9.90625C16.75 9.90625 19.511719 7 22.5 7C25.542969 7 28 9.496094 28 12.5C28 14.042969 26.125 16.125 26.125 16.125L16 26.25L5.875 16.125C5.875 16.125 5.390625 15.660156 4.90625 14.9375C4.421875 14.214844 4 13.273438 4 12.5C4 9.496094 6.457031 7 9.5 7Z" fill="#8D8282" />
</svg>