<svg width="20" height="17" viewBox="0 0 20 17" fill="none" xmlns="http://www.w3.org/2000/svg">
<g clip-path="url(#clip0_0_3368)">
<path fill-rule="evenodd" clip-rule="evenodd" d="M16.1109 2.6199H4.07086C3.12093 2.6199 2.35086 3.38998 2.35086 4.33991V12.9399C2.35086 13.8898 3.12093 14.6599 4.07086 14.6599H16.1109C17.0608 14.6599 17.8308 13.8898 17.8308 12.9399V4.33991C17.8308 3.38998 17.0608 2.6199 16.1109 2.6199ZM4.07086 0.899902C2.171 0.899902 0.630859 2.44005 0.630859 4.33991V12.9399C0.630859 14.8398 2.171 16.3799 4.07086 16.3799H16.1109C18.0108 16.3799 19.5509 14.8398 19.5509 12.9399V4.33991C19.5509 2.44005 18.0108 0.899902 16.1109 0.899902H4.07086Z" fill="#23262F"/>
<path fill-rule="evenodd" clip-rule="evenodd" d="M10.9512 8.63984C10.9512 6.26501 12.8763 4.33984 15.2512 4.33984H18.6912C19.1661 4.33984 19.5512 4.72488 19.5512 5.19984C19.5512 5.67481 19.1661 6.05984 18.6912 6.05984H15.2512C13.8263 6.05984 12.6712 7.21494 12.6712 8.63984C12.6712 10.0647 13.8263 11.2198 15.2512 11.2198H18.6912C19.1661 11.2198 19.5512 11.6049 19.5512 12.0798C19.5512 12.5548 19.1661 12.9398 18.6912 12.9398H15.2512C12.8763 12.9398 10.9512 11.0147 10.9512 8.63984Z" fill="#23262F"/>
<path d="M16.1106 8.63979C16.1106 9.11476 15.7256 9.49979 15.2506 9.49979C14.7757 9.49979 14.3906 9.11476 14.3906 8.63979C14.3906 8.16482 14.7757 7.77979 15.2506 7.77979C15.7256 7.77979 16.1106 8.16482 16.1106 8.63979Z" fill="#23262F"/>
</g>
<defs>
<clipPath id="clip0_0_3368">
<rect width="18.92" height="15.48" fill="white" transform="translate(0.630859 0.899902)"/>
</clipPath>
</defs>
</svg>
