<svg width="16" height="16" viewBox="0 0 16 16" fill="none" xmlns="http://www.w3.org/2000/svg">
<path fill-rule="evenodd" clip-rule="evenodd" d="M1.33268 2C1.70087 2 1.99934 2.29848 1.99934 2.66667V12C1.99934 12.3682 2.29782 12.6667 2.66601 12.6667H14.666C15.0342 12.6667 15.3327 12.9651 15.3327 13.3333C15.3327 13.7015 15.0342 14 14.666 14H2.66601C1.56144 14 0.666016 13.1046 0.666016 12V2.66667C0.666016 2.29848 0.964492 2 1.33268 2Z" fill="#777E90"/>
<g clip-path="url(#clip0_0_3092)">
<path d="M12.0007 3.33325C11.6325 3.33325 11.334 3.63173 11.334 3.99992V10.6666C11.334 11.0348 11.6325 11.3333 12.0007 11.3333C12.3688 11.3333 12.6673 11.0348 12.6673 10.6666V3.99992C12.6673 3.63173 12.3688 3.33325 12.0007 3.33325Z" fill="#777E90"/>
<path d="M6.66666 4.6665C6.29847 4.6665 6 4.96498 6 5.33317V10.6665C6 11.0347 6.29847 11.3332 6.66666 11.3332C7.03485 11.3332 7.33333 11.0347 7.33333 10.6665V5.33317C7.33333 4.96498 7.03485 4.6665 6.66666 4.6665Z" fill="#777E90"/>
<path d="M4.00065 8.6665C3.63246 8.6665 3.33398 8.96498 3.33398 9.33317V10.6665C3.33398 11.0347 3.63246 11.3332 4.00065 11.3332C4.36884 11.3332 4.66731 11.0347 4.66731 10.6665V9.33317C4.66731 8.96498 4.36884 8.6665 4.00065 8.6665Z" fill="#777E90"/>
<path d="M8.66797 6.66666C8.66797 6.29847 8.96645 6 9.33464 6C9.70283 6 10.0013 6.29847 10.0013 6.66666V10.6667C10.0013 11.0348 9.70283 11.3333 9.33464 11.3333C8.96645 11.3333 8.66797 11.0348 8.66797 10.6667V6.66666Z" fill="#777E90"/>
</g>
<defs>
<clipPath id="clip0_0_3092">
<rect width="9.33333" height="8" fill="white" transform="translate(3.33398 3.33325)"/>
</clipPath>
</defs>
</svg>
