<svg width="21" height="20" viewBox="0 0 21 20" fill="none" xmlns="http://www.w3.org/2000/svg">
<path fill-rule="evenodd" clip-rule="evenodd" d="M2.38021 2.5C2.84045 2.5 3.21355 2.8731 3.21355 3.33333V15C3.21355 15.4602 3.58664 15.8333 4.04688 15.8333H19.0469C19.5071 15.8333 19.8802 16.2064 19.8802 16.6667C19.8802 17.1269 19.5071 17.5 19.0469 17.5H4.04688C2.66617 17.5 1.54688 16.3807 1.54688 15V3.33333C1.54688 2.8731 1.91997 2.5 2.38021 2.5Z" fill="#777E90"/>
<g clip-path="url(#clip0_337_1274)">
<path d="M15.7142 4.16675C15.254 4.16675 14.8809 4.53984 14.8809 5.00008V13.3334C14.8809 13.7936 15.254 14.1667 15.7142 14.1667C16.1745 14.1667 16.5476 13.7936 16.5476 13.3334V5.00008C16.5476 4.53984 16.1745 4.16675 15.7142 4.16675Z" fill="#777E90"/>
<path d="M9.04721 5.8335C8.58697 5.8335 8.21387 6.20659 8.21387 6.66683V13.3335C8.21387 13.7937 8.58697 14.1668 9.04721 14.1668C9.50744 14.1668 9.88054 13.7937 9.88054 13.3335V6.66683C9.88054 6.20659 9.50744 5.8335 9.04721 5.8335Z" fill="#777E90"/>
<path d="M5.71419 10.8335C5.25396 10.8335 4.88086 11.2066 4.88086 11.6668V13.3335C4.88086 13.7937 5.25396 14.1668 5.71419 14.1668C6.17443 14.1668 6.54753 13.7937 6.54753 13.3335V11.6668C6.54753 11.2066 6.17443 10.8335 5.71419 10.8335Z" fill="#777E90"/>
<path d="M11.5479 8.33334C11.5479 7.8731 11.9209 7.5 12.3812 7.5C12.8414 7.5 13.2145 7.8731 13.2145 8.33334V13.3333C13.2145 13.7936 12.8414 14.1667 12.3812 14.1667C11.9209 14.1667 11.5479 13.7936 11.5479 13.3333V8.33334Z" fill="#777E90"/>
</g>
<defs>
<clipPath id="clip0_337_1274">
<rect width="11.6667" height="10" fill="white" transform="translate(4.88086 4.16675)"/>
</clipPath>
</defs>
</svg>
