<svg width="20" height="20" viewBox="0 0 20 20" fill="none" xmlns="http://www.w3.org/2000/svg">
<path fill-rule="evenodd" clip-rule="evenodd" d="M15.834 4.16667H4.16731C3.24684 4.16667 2.50065 4.91286 2.50065 5.83333V14.1667C2.50065 15.0871 3.24684 15.8333 4.16731 15.8333H15.834C16.7545 15.8333 17.5007 15.0871 17.5007 14.1667V5.83333C17.5007 4.91286 16.7545 4.16667 15.834 4.16667ZM4.16731 2.5C2.32636 2.5 0.833984 3.99238 0.833984 5.83333V14.1667C0.833984 16.0076 2.32636 17.5 4.16731 17.5H15.834C17.6749 17.5 19.1673 16.0076 19.1673 14.1667V5.83333C19.1673 3.99238 17.6749 2.5 15.834 2.5H4.16731Z" fill="#FCFCFD"/>
<path fill-rule="evenodd" clip-rule="evenodd" d="M10.834 9.99998C10.834 7.69879 12.6995 5.83331 15.0007 5.83331H18.334C18.7942 5.83331 19.1673 6.20641 19.1673 6.66665C19.1673 7.12688 18.7942 7.49998 18.334 7.49998H15.0007C13.6199 7.49998 12.5007 8.61926 12.5007 9.99998C12.5007 11.3807 13.6199 12.5 15.0007 12.5H18.334C18.7942 12.5 19.1673 12.8731 19.1673 13.3333C19.1673 13.7936 18.7942 14.1666 18.334 14.1666H15.0007C12.6995 14.1666 10.834 12.3012 10.834 9.99998Z" fill="#FCFCFD"/>
<path d="M15.8327 10C15.8327 10.4603 15.4596 10.8334 14.9993 10.8334C14.5391 10.8334 14.166 10.4603 14.166 10C14.166 9.53978 14.5391 9.16669 14.9993 9.16669C15.4596 9.16669 15.8327 9.53978 15.8327 10Z" fill="#FCFCFD"/>
</svg>
